HIERARCHY
ROOT Hips
{
  OFFSET 40.9192 92.6879 18.85
  CHANNELS 6 Xposition Yposition Zposition Zrotation Xrotation Yrotation
  JOINT LeftUpLeg
  {
    OFFSET 8.64259 1.95398 -2.38835
    CHANNELS 3 Zrotation Xrotation Yrotation
    JOINT LeftLeg
    {
      OFFSET 43.7702 0 0
      CHANNELS 3 Zrotation Xrotation Yrotation
      JOINT LeftFoot
      {
        OFFSET 40.6238 0 0
        CHANNELS 3 Zrotation Xrotation Yrotation
        JOINT LeftToeBase
        {
          OFFSET 12.7242 0 0
          CHANNELS 3 Zrotation Xrotation Yrotation
          End Site
          {
            OFFSET 0 0 0
          }
        }
      }
    }
  }
  JOINT RightUpLeg
  {
    OFFSET -8.2249 1.95398 -2.59336
    CHANNELS 3 Zrotation Xrotation Yrotation
    JOINT RightLeg
    {
      OFFSET 43.5653 0 0
      CHANNELS 3 Zrotation Xrotation Yrotation
      JOINT RightFoot
      {
        OFFSET 40.6238 0 0
        CHANNELS 3 Zrotation Xrotation Yrotation
        JOINT RightToeBase
        {
          OFFSET 12.7242 0 0
          CHANNELS 3 Zrotation Xrotation Yrotation
          End Site
          {
            OFFSET 0 0 0
          }
        }
      }
    }
  }
  JOINT Spine
  {
    OFFSET 0.165834 0.87714 6.61349
    CHANNELS 3 Zrotation Xrotation Yrotation
    JOINT Spine1
    {
      OFFSET 7.38963 1.71661e-005 0
      CHANNELS 3 Zrotation Xrotation Yrotation
      JOINT Spine2
      {
        OFFSET 11.9445 1.14441e-005 0
        CHANNELS 3 Zrotation Xrotation Yrotation
        JOINT Spine3
        {
          OFFSET 14.7254 4.19617e-005 0
          CHANNELS 3 Zrotation Xrotation Yrotation
          JOINT Spine4
          {
            OFFSET 10.9679 0 0
            CHANNELS 3 Zrotation Xrotation Yrotation
            JOINT RightShoulder
            {
              OFFSET 2.46616 -1.6653 3.69651
              CHANNELS 3 Zrotation Xrotation Yrotation
              JOINT RightArm
              {
                OFFSET 13.0012 0 0
                CHANNELS 3 Zrotation Xrotation Yrotation
                JOINT RightForeArm
                {
                  OFFSET 28.7848 1.52588e-005 0
                  CHANNELS 3 Zrotation Xrotation Yrotation
                  JOINT RightHand
                  {
                    OFFSET 26.5688 1.52588e-005 0
                    CHANNELS 3 Zrotation Xrotation Yrotation
                    End Site
                    {
                      OFFSET 0 0 0
                    }
                  }
                }
              }
            }
            JOINT LeftShoulder
            {
              OFFSET 2.38034 -1.29275 -3.7523
              CHANNELS 3 Zrotation Xrotation Yrotation
              JOINT LeftArm
              {
                OFFSET 16.3182 6.10351e-005 0
                CHANNELS 3 Zrotation Xrotation Yrotation
                JOINT LeftForeArm
                {
                  OFFSET 27.0901 0 0
                  CHANNELS 3 Zrotation Xrotation Yrotation
                  JOINT LeftHand
                  {
                    OFFSET 24.5451 1.52588e-005 0
                    CHANNELS 3 Zrotation Xrotation Yrotation
                    End Site
                    {
                      OFFSET 0 0 0
                    }
                  }
                }
              }
            }
            JOINT Neck
            {
              OFFSET 5.0226 -0.0266342 0
              CHANNELS 3 Zrotation Xrotation Yrotation
              JOINT Head
              {
                OFFSET 6.69363 2.86102e-005 0
                CHANNELS 3 Zrotation Xrotation Yrotation
                End Site
                {
                  OFFSET 0 0 0
                }
              }
            }
          }
        }
      }
    }
  }
}
MOTION
Frames:	15
Frame Time:	0.0416667
322.096 89.0714 243.963 110.398 -39.7082 100.971 -173.236 17.0385 92.053 -35.3107 47.1064 -0.885373 39.5269 -15.4124 1.803 37.8542 1.38567 153.313 173.679 20.7087 81.9466 -88.3833 -6.33888 -2.54483 76.5868 -10.9495 -5.36952 41.4211 0.146797 -10.5093 -6.7265 8.68091 -87.2909 9.85757 -12.182 6.35 -1.77385 -11.8913 6.88436 -24.7495 -13.5182 2.33972 -4.73684 -13.5182 2.33972 73.9217 -1.53388 -169.333 64.6882 0.912035 10.7194 -2.24785 3.93033 -68.1233 -31.9427 -1.10712 -1.43171 -70.7855 -37.1745 109.535 -26.0215 44.0004 1.40534 -0.86054 44.1766 -31.5929 -38.7365 16.568 -52.4116 -0.155071 25.1968 6.95772 1.91204 22.5122 -31.8235 
321.7 91.2829 241.985 110.851 -51.4874 102.073 -173.403 13.3711 91.2517 -26.2688 21.2771 0.449382 40.7077 -16.5794 -9.74258 32.6006 14.142 145.841 -178.815 25.7676 81.2514 -88.3081 2.36892 -4.02147 56.1302 -4.9237 -3.23815 38.7497 0.252428 -9.81195 -4.88991 8.34962 -87.6482 10.3783 -8.66649 5.42858 -1.27672 -8.41957 5.80572 -24.0171 -9.89369 2.55515 -4.0044 -9.89369 2.55515 70.1701 -9.10494 -164.938 53.6751 -0.429206 12.4184 -5.90861 -0.922183 -77.5144 -30.7412 -0.478536 -3.35209 -80.7191 -42.7185 92.2591 -37.0156 4.95354 22.3552 23.2056 27.0068 -44.2307 -56.1608 26.3203 -34.6371 9.72005 20.1933 1.28183 -10.4839 20.9757 -28.5883 
320.454 90.6604 239.501 111.91 -58.6649 107.742 -172.935 13.9571 97.9188 -20.3531 -15.8072 2.58346 17.883 -13.227 -47.5714 26.2683 31.3268 140.064 -170.628 19.2524 82.9302 -90.3801 -5.75676 -6.7094 50.2792 -0.877393 -0.648356 47.4274 0.0338716 -9.4119 -3.12329 8.45662 -88.322 10.0493 -5.4605 3.77848 -1.61613 -5.28901 4.01532 -24.2299 -6.34284 1.95838 -4.2173 -6.34283 1.95837 71.674 -13.654 -156.245 48.925 -5.78009 10.8921 -13.2109 -0.0106098 -89.4312 -28.2787 -0.0655044 -4.43037 -83.6018 -41.5136 87.3825 -44.8021 -0.642996 32.3324 -9.71749 -10.0597 -57.0862 31.0382 -0.564271 8.81768 18.4032 13.5287 -6.71557 -19.3127 17.2573 -18.1012 
316.645 91.8601 236.54 110.462 -58.7684 106.537 -173.299 11.3749 99.1247 -6.66743 -29.1861 4.46429 11.5296 -4.38592 -71.8784 37.094 1.92938 83.3185 -172.056 10.6086 83.036 -83.7395 -8.67498 -9.87389 58.3825 -1.33889 -0.821878 46.9679 0.915911 0.364389 -2.08329 8.71299 -88.7536 9.48342 -3.59269 2.74243 -2.1859 -3.46857 2.89791 -24.7511 -4.25053 1.5349 -4.73843 -4.25053 1.53489 76.4812 -15.3604 -144.841 48.3684 -12.4733 7.97074 -16.4794 -0.735021 -96.0661 -27.9621 -0.431198 -2.86431 -78.725 -37.5006 95.4751 -51.3301 6.69695 33.5059 -10.9706 -6.35572 -62.9165 44.8776 1.12757 -1.74039 24.94 7.25464 -5.80903 -21.489 10.3081 -9.11808 
310.715 95.5493 232.257 103.92 -56.196 102.161 -174.213 18.1852 97.1387 -6.75354 22.611 2.16366 -14.198 -40.8015 -18.2001 84.8405 21.5497 -41.5201 -176.245 7.92515 85.214 -70.4339 -13.6084 -10.1558 57.6925 -0.790736 -0.456504 48.7231 1.26782 2.43448 -1.5054 8.76521 -89.5433 9.3579 -2.79665 1.11162 -2.31062 -2.74503 1.23369 -24.8696 -3.00135 0.219011 -4.85695 -3.00134 0.219024 81.9383 -16.0426 -132.507 48.5084 -19.193 5.67755 -17.6213 -1.34054 -95.7825 -30.3488 -0.515393 -2.57496 -74.7398 -38.6495 102.43 -52.0746 8.39495 33.1863 -9.31155 -4.73738 -67.3314 43.8598 1.22406 -1.29092 31.0036 3.9675 -0.773265 -20.4456 4.53473 -2.99239 
304.284 94.9445 227.615 98.8689 -53.7097 98.0072 -174.019 17.2039 103.735 13.8785 -79.7706 23.9221 -74.3248 -41.7514 -45.7224 -58.7636 -39.6978 -32.0566 -177.823 11.4362 87.421 -66.5655 -15.7016 -9.04527 62.4373 -1.67099 -0.954352 51.6697 0.321457 -6.02824 -0.811498 8.75252 -89.9092 9.37134 -1.57732 0.297151 -2.29871 -1.56275 0.366292 -24.8414 -1.5937 -0.190759 -4.82873 -1.59371 -0.190764 84.5699 -22.0505 -122.1 46.7724 -19.9905 6.58665 -17.7963 -3.43682 -91.8717 -31.2417 -0.581965 -2.30467 -79.2786 -45.4961 94.7898 -46.2184 4.65368 29.8176 -10.4209 -5.17021 -69.1322 46.0796 1.96152 0.226742 29.383 0.821487 3.92895 -11.7561 -0.471928 -2.74711 
295.827 94.7069 221.956 97.4837 -54.2829 95.0388 -174.824 24.215 101.867 22.4946 -87.1869 55.8869 -28.6524 0.587283 -88.4667 15.3101 -24.3003 32.1683 -178.378 17.2175 88.9861 -64.0735 -6.22762 -6.90727 66.5975 -4.13184 -2.31967 52.2967 0.266323 -6.12962 0.147539 8.46204 -90.1757 9.94964 0.214136 -0.36871 -1.72146 0.197702 -0.377779 -24.2557 0.315021 -0.287316 -4.243 0.315041 -0.287321 87.1332 -29.7069 -112.478 42.5833 -18.3677 11.2021 -16.948 -6.7999 -84.4544 -30.1725 -0.77256 -1.47551 -92.8788 -54.2148 75.5252 -37.7672 0.990157 28.1216 -10.9371 -6.06058 -66.6109 47.649 1.02407 -1.99199 17.8186 -2.83645 13.5301 -0.836128 -6.48124 -5.58834 
288.093 94.5848 216.186 99.3101 -53.9008 94.6227 -170.039 33.9323 93.6028 -68.0306 -3.12396 -0.299579 45.4545 11.6204 -13.1313 9.09987 -22.6878 15.7758 179.639 21.0991 89.3681 -61.6522 -0.309372 -4.87011 67.5603 -5.32503 -2.9214 42.8618 0.310986 -6.60511 0.702365 8.16953 -90.1996 10.538 1.30738 -0.514173 -1.13245 1.28346 -0.571217 -23.6729 1.40144 -0.0974081 -3.66029 1.40144 -0.0974142 89.9576 -39.1559 -103.813 36.33 -16.314 15.5129 -16.397 -11.4306 -76.7611 -28.5761 -1.07345 -0.0839408 -109.152 -57.3845 54.4032 -29.8362 2.00633 28.2487 -12.9193 -7.64708 -64.2179 47.5133 0.657664 -2.75664 4.23914 -6.82657 15.0427 7.48934 -9.71489 -6.44813 
282.004 92.9111 211.295 97.0611 -52.9135 93.0974 -167.286 34.1385 91.0559 -84.1008 12.8826 -0.168312 67.9797 11.4923 6.45684 -10.1053 -38.6251 9.18172 -179.003 26.3695 90.7409 -60.1314 1.97796 -4.74898 64.3673 -4.20463 -2.39495 49.145 0.821657 -1.73573 0.889017 7.90371 -90.4052 11.0733 1.58168 -0.959047 -0.597123 1.53797 -1.02775 -23.1392 1.79678 -0.43923 -3.12654 1.79681 -0.439233 93.8323 -44.8959 -95.802 29.8042 -14.6724 17.0669 -14.8648 -16.377 -68.7187 -29.1091 -1.70832 2.38746 -124.313 -58.8251 36.0937 -20.3884 4.10227 25.3715 -12.7123 -7.78017 -62.7877 47.3284 1.49492 -0.947449 -0.262524 -7.6418 16.0396 7.91051 -10.2428 -8.1896 
276.656 91.6068 206.053 97.5054 -53.7089 95.3542 -166.907 28.3948 92.6044 -90.2283 16.1654 0.132882 70.9785 15.4036 5.87886 -47.0877 -57.8604 -9.20849 -178.172 29.8081 93.8372 -58.3681 0.744563 -4.89535 69.0942 -4.95362 -2.61974 36.246 0.338799 -6.19776 0.680619 8.08642 -90.5482 10.7066 1.10287 -1.18999 -0.96445 1.04944 -1.23737 -23.5012 1.40949 -0.803512 -3.48857 1.40951 -0.803509 95.2421 -44.7945 -93.495 28.4306 -15.7643 17.2965 -11.3333 -19.9329 -61.6029 -31.6449 -1.74232 2.12633 -125.024 -58.3299 34.962 -15.1023 5.2052 20.5712 -14.2538 -8.25337 -63.1781 48.4848 0.311362 -3.52854 3.95766 -4.50594 13.658 4.28566 -6.89991 -5.65469 
271.201 92.4118 200.394 96.8922 -56.1826 94.4138 -165.847 19.4195 91.2277 -84.5504 19.8372 -1.05187 75.9483 19.5981 6.01113 -92.135 -55.0081 -46.0392 -177.663 32.9617 93.5621 -52.1376 -3.01879 -5.17044 63.3364 -2.39492 -1.35056 33.1855 0.384148 -6.30986 0.431485 8.18108 -90.2896 10.5126 0.726523 -0.640867 -1.15834 0.697627 -0.672234 -23.6942 0.885544 -0.392882 -3.68156 0.88554 -0.392895 94.8984 -43.1792 -94.3252 30.3849 -17.4062 22.2108 -10.4999 -18.8991 -63.7216 -31.0336 -1.42642 1.01293 -118.81 -55.8082 41.2493 -14.5434 4.16861 19.1648 -16.8245 -8.85811 -67.6559 47.0206 -1.93352 -8.37804 5.40879 -1.28501 9.88283 3.54643 -2.95938 -1.53059 
265.491 96.1293 193.791 93.828 -56.7766 92.9079 -169.73 12.9989 89.0366 -70.8422 17.194 -1.20575 78.9594 18.1022 -0.453181 -82.2266 -52.2581 -41.2719 179.612 28.8628 93.1195 -28.901 -9.30981 -2.92641 49.6675 2.41862 2.23309 27.0188 0.236489 -4.18997 0.013513 8.31527 -90.0625 10.2434 -0.00159717 -0.123068 -1.4275 -0.00702758 -0.122878 -23.9626 0.0354661 -0.117858 -3.94997 0.0354504 -0.117861 96.0006 -42.3563 -92.5824 32.3914 -19.8945 23.427 -9.76925 -17.4628 -66.4203 -30.4467 -1.35113 0.702783 -107.524 -51.9109 54.1913 -16.8094 4.69768 16.6697 -16.8221 -7.85698 -72.4926 44.8009 -2.6847 -10.3102 9.66091 1.89172 3.98431 0.157832 1.2301 3.44659 
259.495 98.8687 186.756 88.5591 -59.4175 89.4047 -171.681 8.49975 86.7931 -52.9063 22.3026 -2.32214 74.553 17.2111 10.2738 -23.6009 -37.036 -9.43457 178.35 25.9237 93.3159 -10.3653 -24.7817 -2.28896 42.9731 5.65772 5.29917 27.463 0.551999 -8.14061 0.0459764 8.24344 -89.8283 10.3866 0.170284 0.326226 -1.28434 0.184465 0.318412 -23.8192 0.0643541 0.362318 -3.80653 0.0643647 0.36232 96.8573 -41.4924 -91.2269 34.4567 -21.761 23.6138 -8.18897 -16.1498 -66.1987 -31.1761 -0.642242 -2.00879 -98.6572 -46.2754 64.6051 -21.0527 7.57292 15.2899 -16.2073 -6.98176 -75.5208 43.516 -3.17805 -11.6556 13.3889 3.16288 0.209828 -2.08266 3.14987 4.32479 
253.405 99.1827 179.745 84.6055 -60.9461 88.6372 -172.836 8.07724 87.2408 -41.587 21.0719 -1.76291 70.5622 13.9111 12.9366 20.2953 -7.84485 4.55368 -178.074 29.5104 94.0436 -25.0767 -18.5226 -4.93034 55.3011 0.704167 0.709343 37.7541 0.320672 -9.59207 0.135707 8.25076 -89.9383 10.3725 0.298617 0.0959182 -1.29838 0.302563 0.0826807 -23.8337 0.255996 0.181231 -3.8211 0.255991 0.181227 96.4861 -41.488 -91.8691 35.0362 -19.8219 22.5338 -10.9709 -14.1789 -67.814 -28.4365 -0.160738 -3.67908 -93.4018 -42.9196 71.6089 -24.193 10.8916 13.8289 -14.8585 -5.81891 -76.775 45.8113 -3.33575 -11.6259 18.2986 4.53299 -0.73869 -5.82087 4.57451 4.05744 
246.55 98.5024 172.401 84.6628 -62.356 88.4501 -172.531 12.2786 87.3264 -39.818 8.95243 -1.68221 68.7756 8.23278 -1.65868 43.4869 12.5308 8.67091 -177.145 32.2712 92.5583 -49.7625 -5.8277 -5.24186 64.2428 -3.05631 -1.7739 39.5797 0.282535 -9.11451 0.209612 8.13985 -89.7534 10.5931 0.530949 0.442698 -1.07785 0.54993 0.418892 -23.6129 0.373364 0.581809 -3.60021 0.373371 0.58181 95.6312 -42.774 -93.1503 32.551 -20.7504 19.2339 -10.3279 -14.2223 -70.5452 -28.9094 -0.785768 -1.42635 -92.6994 -42.2948 72.5538 -26.3362 11.7379 16.2409 -12.8252 -5.0973 -74.242 46.9969 -2.67812 -10.1248 15.9197 4.99849 -1.63984 -4.741 5.29093 3.84756 
